# xmcd
#
# Track frame offsets: 
#        150
#        16535
#        31572
#        47477
#        67520
#        86770
#        105525
#        120702
#        142000
#        160655
#        178310
#        192867
#
# Disc length: 2845 seconds
#
# Revision: 0
# Processed by: cddbd v1.4PL0 Copyright (c) Steve Scherf et al.
# Submitted via: ExactAudioCopy v0.90a11
#
DISCID=8a0b1b0c
DTITLE=Hangdogs - East of Yesterday
DYEAR=1900
DGENRE=
TTITLE0=Once More's Gone
TTITLE1=Hey, Janeane
TTITLE2=Speed Rack
TTITLE3=Drift
TTITLE4=Something Left to Save
TTITLE5=The Ring
TTITLE6=I'd Call to Say I Love You...
TTITLE7=The Man with the Plan that Went Awry
TTITLE8=High and Dry
TTITLE9=In My Dreams
TTITLE10=They Don't Play No Country on the East Side of New York
TTITLE11=Flatlands
EXTD=
EXTT0=
EXTT1=
EXTT2=
EXTT3=
EXTT4=
EXTT5=
EXTT6=
EXTT7=
EXTT8=
EXTT9=
EXTT10=
EXTT11=
PLAYORDER=
